<?xml version="1.0" encoding="UTF-8"?><svg id="b" xmlns="http://www.w3.org/2000/svg" width="324.637" height="114.098" viewBox="0 0 324.637 114.098"><defs><style>.d{fill:#fff;}.e{fill:#74c66d;}.f{fill:#211715;}.g{fill:#febe69;}</style></defs><g id="c"><path class="f" d="M76.213,49.466c5.318-6.961,11.687-13.313,18.715-18.545s14.958-9.657,23.618-11.458c7.789-1.62,16.165-1.674,23.952-.031,7.183,1.516,13.876,4.507,20.048,8.448,7.427,4.741,13.991,10.69,20.264,16.842,2.207,2.165,5.604-1.227,3.394-3.394-11.461-11.241-24.348-21.985-40.242-26.016-8.374-2.124-17.028-2.239-25.548-1.016-9.251,1.328-17.861,5.456-25.492,10.742-8.742,6.055-16.406,13.564-22.855,22.005-.788,1.031-.16,2.686.861,3.284,1.235.722,2.494.172,3.284-.861h0Z"/><path class="f" d="M170.917,31.305c7.029-7.459,14.966-14.066,24.064-18.855,8.459-4.453,17.813-7.122,27.367-7.629,10.373-.551,20.705,1.177,30.326,5.089,9.544,3.881,18.246,9.823,25.94,16.622,8.778,7.757,16.445,16.722,23.146,26.314.741,1.061,2.101,1.553,3.284.861,1.05-.614,1.607-2.216.861-3.284-12.391-17.735-28.256-34.354-48.175-43.511-19.533-8.979-42.164-9.346-61.74-.303-10.842,5.009-20.314,12.649-28.468,21.301-2.118,2.247,1.27,5.648,3.394,3.394h0Z"/><path class="e" d="M179.328,98.486c1.035,1.817,2.012,3.666,2.884,5.567.21.459.414.92.613,1.384-.227-.528.111.273.149.365.09.222.178.444.265.666.397,1.015.763,2.041,1.106,3.076.322.971,1.23,1.811,2.314,1.762,1.113-.05,1.946-.723,2.314-1.762.353-.997.719-1.989,1.106-2.974.2-.51.406-1.018.617-1.523-.22.526.118-.272.158-.362.095-.217.19-.433.287-.648.854-1.899,1.806-3.75,2.849-5.551.629-1.087.288-2.676-.861-3.284s-2.612-.3-3.284.861c-2.242,3.874-4.008,7.99-5.501,12.205h4.629c-1.41-4.252-3.286-8.314-5.501-12.205-.622-1.092-2.203-1.558-3.284-.861-1.103.711-1.526,2.116-.861,3.284h0Z"/><path class="e" d="M197.239,98.486c1.035,1.817,2.012,3.666,2.884,5.567.21.459.414.92.613,1.384-.227-.528.111.273.149.365.09.222.178.444.265.666.397,1.015.763,2.041,1.106,3.076.322.971,1.23,1.811,2.314,1.762,1.113-.05,1.946-.723,2.314-1.762.353-.997.719-1.989,1.106-2.974.2-.51.406-1.018.617-1.523-.22.526.118-.272.158-.362.095-.217.19-.433.287-.648.854-1.899,1.806-3.75,2.849-5.551.629-1.087.288-2.676-.861-3.284s-2.612-.3-3.284.861c-2.242,3.874-4.008,7.99-5.501,12.205h4.629c-1.41-4.252-3.286-8.314-5.501-12.205-.622-1.092-2.203-1.558-3.284-.861-1.103.711-1.526,2.116-.861,3.284h0Z"/><path class="e" d="M215.15,98.486c1.035,1.817,2.012,3.666,2.884,5.567.21.459.414.92.613,1.384-.227-.528.111.273.149.365.09.222.178.444.265.666.397,1.015.763,2.041,1.106,3.076.322.971,1.23,1.811,2.314,1.762,1.113-.05,1.946-.723,2.314-1.762.353-.997.719-1.989,1.106-2.974.2-.51.406-1.018.617-1.523-.22.526.118-.272.158-.362.095-.217.19-.433.287-.648.854-1.899,1.806-3.75,2.849-5.551.629-1.087.288-2.676-.861-3.284s-2.612-.3-3.284.861c-2.242,3.874-4.008,7.99-5.501,12.205h4.629c-1.41-4.252-3.286-8.314-5.501-12.205-.622-1.092-2.203-1.558-3.284-.861-1.103.711-1.526,2.116-.861,3.284h0Z"/><path class="d" d="M29.469,111.698c0-4.243-.033-11.25-.034-16.558,2.874.558,6.036.846,8.045.846,1.432,0,4.415-.258,7.295-.75,0,5.297.035,12.255.035,16.461h-15.341Z"/><path class="d" d="M29.469,111.698c0-4.242-.033-11.248-.033-16.557"/><path class="d" d="M44.775,95.236c0,5.297.035,12.255.035,16.461"/><path class="f" d="M31.869,111.698c0-5.519-.033-11.038-.033-16.557,0-1.297-1.103-2.4-2.4-2.4s-2.4,1.098-2.4,2.4c0,5.519.033,11.038.033,16.557,0,1.297,1.103,2.4,2.4,2.4s2.4-1.098,2.4-2.4h0Z"/><path class="f" d="M42.375,95.236c0,5.487.034,10.974.035,16.461,0,1.297,1.103,2.4,2.4,2.4s2.4-1.098,2.4-2.4c0-5.487-.034-10.974-.035-16.461,0-1.297-1.103-2.4-2.4-2.4s-2.4,1.098-2.4,2.4h0Z"/><path class="e" d="M41.874,42.952c-2.602-2.001-6.194-2.001-8.795.002-6.085,4.685-10.779,11.121-13.645,18.253-.873,2.172-1.584,4.415-2.008,6.717-.404,2.191-.545,4.42-.686,6.644-.248,3.919-.476,7.983.939,11.646,1.226,3.174,3.675,5.846,6.703,7.398s9.705,2.374,13.098,2.374c2.559,0,10.07-.822,13.098-2.374,3.028-1.552,5.478-4.224,6.703-7.398,1.415-3.664,1.187-7.727.939-11.646-.141-2.223-.282-4.453-.686-6.644-.424-2.302-1.135-4.545-2.008-6.717-2.867-7.134-7.562-13.571-13.651-18.255Z"/><path class="f" d="M43.086,40.88c-2.31-1.681-5.326-2.233-8.089-1.5-2.745.729-4.98,2.854-6.979,4.777-3.927,3.778-7.174,8.328-9.518,13.244-1.332,2.792-2.469,5.717-3.152,8.739-.725,3.206-.909,6.517-1.091,9.789-.33,5.958.291,11.876,4.528,16.428,3.494,3.754,8.202,4.934,13.101,5.587,4.121.549,8.005.425,12.111-.176,4.668-.683,9.019-1.938,12.303-5.551,4.253-4.679,4.733-10.702,4.375-16.743-.213-3.594-.451-7.209-1.405-10.696-.87-3.18-2.176-6.277-3.723-9.186-2.941-5.529-7.03-10.492-11.977-14.337-1.022-.795-2.397-.997-3.394,0-.828.828-1.029,2.594,0,3.394,7.693,5.98,13.772,15.097,15.2,24.854.397,2.713.527,5.511.607,8.251.077,2.626,0,5.357-1.017,7.822-.768,1.861-2.08,3.544-3.674,4.77-1.606,1.235-2.754,1.606-4.695,2.07-3.193.763-6.601,1.256-9.892,1.157-1.883-.056-3.768-.25-5.625-.565-1.719-.292-3.911-.731-5.264-1.359-4.245-1.971-6.519-6.164-6.806-10.71-.173-2.753.054-5.532.257-8.278.206-2.797.652-5.503,1.52-8.177,1.652-5.088,4.37-9.935,7.852-13.996,1.737-2.026,3.696-4.107,5.893-5.642,1.988-1.389,4.208-1.221,6.13.177,1.049.763,2.676.179,3.284-.861.71-1.214.19-2.519-.861-3.284Z"/><path class="d" d="M265.658,95.236c0,5.297.035,12.255.035,16.461h-15.341c0-4.243-.033-11.25-.034-16.558,2.874.558,6.036.846,8.045.846,1.432,0,4.415-.258,7.295-.75,0,5.297.035,12.255.035,16.461"/><path class="d" d="M250.352,111.698c0-4.242-.033-11.248-.033-16.557"/><path class="d" d="M265.658,95.236c0,5.297.035,12.255.035,16.461"/><path class="f" d="M252.752,111.698c0-5.519-.033-11.038-.033-16.557,0-1.297-1.103-2.4-2.4-2.4s-2.4,1.098-2.4,2.4c0,5.519.033,11.038.033,16.557,0,1.297,1.103,2.4,2.4,2.4s2.4-1.098,2.4-2.4h0Z"/><path class="f" d="M263.258,95.236c0,5.487.034,10.974.035,16.461,0,1.297,1.103,2.4,2.4,2.4s2.4-1.098,2.4-2.4c0-5.487-.034-10.974-.035-16.461,0-1.297-1.103-2.4-2.4-2.4s-2.4,1.098-2.4,2.4h0Z"/><path class="e" d="M262.758,42.952c-2.602-2.001-6.194-2.001-8.795.002-6.085,4.685-10.779,11.121-13.645,18.253-.873,2.172-1.584,4.415-2.008,6.717-.404,2.191-.545,4.42-.686,6.644-.248,3.919-.476,7.983.939,11.646,1.226,3.174,3.675,5.846,6.703,7.398,3.028,1.552,9.705,2.374,13.098,2.374,2.559,0,10.07-.822,13.098-2.374s5.478-4.224,6.703-7.398c1.415-3.664,1.187-7.727.939-11.646-.141-2.223-.282-4.453-.686-6.644-.424-2.302-1.135-4.545-2.008-6.717-2.867-7.134-7.562-13.571-13.651-18.255Z"/><path class="f" d="M263.969,40.88c-2.31-1.681-5.326-2.233-8.089-1.5-2.745.729-4.98,2.854-6.979,4.777-3.927,3.778-7.174,8.328-9.518,13.244-1.332,2.792-2.469,5.717-3.152,8.739-.725,3.206-.909,6.517-1.091,9.789-.33,5.958.291,11.876,4.528,16.428,3.494,3.754,8.202,4.934,13.101,5.587,4.121.549,8.005.425,12.111-.176,4.668-.683,9.019-1.938,12.303-5.551,4.253-4.679,4.733-10.702,4.375-16.743-.213-3.594-.451-7.209-1.405-10.696-.87-3.18-2.176-6.277-3.723-9.186-2.941-5.529-7.03-10.492-11.977-14.337-1.022-.795-2.397-.997-3.394,0-.828.828-1.029,2.594,0,3.394,7.693,5.98,13.772,15.097,15.2,24.854.397,2.713.527,5.511.607,8.251.077,2.626,0,5.357-1.017,7.822-.768,1.861-2.08,3.544-3.674,4.77-1.606,1.235-2.754,1.606-4.695,2.07-3.193.763-6.601,1.256-9.892,1.157-1.883-.056-3.768-.25-5.625-.565-1.719-.292-3.911-.731-5.264-1.359-4.245-1.971-6.519-6.164-6.806-10.71-.173-2.753.054-5.532.257-8.278.206-2.797.652-5.503,1.52-8.177,1.652-5.088,4.37-9.935,7.852-13.996,1.737-2.026,3.696-4.107,5.893-5.642,1.988-1.389,4.208-1.221,6.13.177,1.049.763,2.676.179,3.284-.861.71-1.214.19-2.519-.861-3.284Z"/><path class="d" d="M163.374,74.901v36.797c-24.653,0-49.306,0-73.959,0v-36.797"/><path class="f" d="M128.232,88.821v-.995l-2.4,2.4h23.913l-2.4-2.4c0,3.649,0,7.297,0,10.946l2.4-2.4h-23.913l2.4,2.4v-9.951c0-3.089-4.8-3.094-4.8,0v9.951c0,1.297,1.1,2.4,2.4,2.4h23.913c1.297,0,2.4-1.1,2.4-2.4,0-3.649,0-7.297,0-10.946,0-1.297-1.1-2.4-2.4-2.4h-23.913c-1.297,0-2.4,1.1-2.4,2.4v.995c0,3.089,4.8,3.094,4.8,0Z"/><path class="f" d="M160.974,74.901v36.797l2.4-2.4c-19.156,0-38.312,0-57.468,0h-16.491c.8.8,1.6,1.6,2.4,2.4v-36.797c0-3.089-4.8-3.094-4.8,0v36.797c0,1.297,1.1,2.4,2.4,2.4,19.156,0,38.312,0,57.468,0h16.491c1.297,0,2.4-1.1,2.4-2.4v-36.797c0-3.089-4.8-3.094-4.8,0h0Z"/><path class="g" d="M150.869,54.115h-50.073c-.39,0-.758.182-.994.493l-14.618,19.236c-.625.822-.045,2.004.988,2.004,24.798-.002,55.55-.002,79.321-.002,1.032,0,1.612-1.182.987-2.004l-14.617-19.234c-.236-.311-.604-.493-.994-.493Z"/><path class="f" d="M150.869,51.715c-9.217,0-18.435,0-27.652,0h-17.403c-1.481,0-2.963,0-4.444,0-.425,0-.781.002-1.211.086-1.302.252-2.059,1.11-2.811,2.099l-10.22,13.448c-1.271,1.673-2.586,3.321-3.817,5.023-.912,1.261-1.031,2.879-.185,4.22.871,1.381,2.341,1.657,3.852,1.657,1.364,0,2.727,0,4.091,0,23.238-.002,46.476-.002,69.714-.002,2.447,0,6.206.752,7.756-1.657.868-1.349.71-2.985-.205-4.246-1.272-1.752-2.623-3.452-3.933-5.176l-10.081-13.266c-.745-.981-1.486-1.894-2.811-2.099-1.279-.199-2.581.326-2.952,1.676-.313,1.138.388,2.752,1.676,2.952-.089-.014-.701-.943-.26-.372.171.221.338.445.507.667l1.798,2.366,5.352,7.042,5.061,6.66c.469.618.904,1.322,1.435,1.888.054.057.192.339.27.356.005.001.008.017.013.018l-.011-.394c-.126-.644.239-1.048,1.096-1.213-.473-.198-1.433,0-1.942,0-21.918,0-43.836,0-65.755.001-2.655,0-5.309,0-7.964,0-.681,0-1.362,0-2.043,0-.27,0-.54,0-.81,0-.615,0-1.199-.291-.253.409.037.027,1.358.943.55,1.174.042-.012.075-.117.11-.145.468-.379.841-1.106,1.203-1.583l2.148-2.827,10.151-13.358c.292-.385.752-.813.954-1.255-.397.87-1.591.565-.636.652,1.259.116,2.584,0,3.847,0h15.696c9.849,0,19.698,0,29.547,0h.573c3.089,0,3.094-4.8,0-4.8Z"/><path class="f" d="M89.415,93.202h14.862l-2.4-2.4c0,6.075,0,12.149,0,18.224v2.577c0,3.089,4.8,3.094,4.8,0,0-6.075,0-12.149,0-18.224v-2.577c0-1.297-1.1-2.4-2.4-2.4h-14.862c-3.089,0-3.094,4.8,0,4.8h0Z"/><path class="f" d="M322.318,109.298H2.318c-3.089,0-3.094,4.8,0,4.8h320c3.089,0,3.094-4.8,0-4.8h0Z"/></g></svg>